<svg width="114" height="28" xmlns="http://www.w3.org/2000/svg">

 <g>
  <title>background</title>
  <rect fill="none" id="canvas_background" height="30" width="116" y="-1" x="-1"/>
 </g>
 <g>
  <title>Layer 1</title>
  <rect id="svg_2" fill="#E3B873" rx="0.771672" height="1.54334" width="32" y="13.312009" x="0.00051"/>
  <rect id="svg_3" fill="#E3B873" rx="0.771672" height="1.54334" width="32" y="13.312009" x="82.00001"/>
  <path id="svg_4" fill="#E3B873" d="m73.85101,9.265509l-24.1204,-8.9362c-0.3085,-0.114 -0.6513,0.0438 -0.7651,0.3525c-0.0002,0.0003 -0.0002,0.0005 -0.0005,0.0008l-2.6701,7.2681c-0.1135,0.3088 0.0447,0.6513 0.3535,0.7648l0.0005,0l2.7959,1.0266l-0.616,1.6783c-0.1133,0.3088 0.045,0.6508 0.3537,0.7643l5.5928,2.0533l-0.411,1.1189c-0.3735,1.002 -0.025,2.1301 0.8491,2.7463l0,3.0402l-8.016,0c-0.388,-0.887 -1.182,-1.5311 -2.1303,-1.7276l0,-1.251c0,-0.3291 -0.2665,-0.5958 -0.5958,-0.5958l-2.4019,0c-0.329,0 -0.5958,0.2667 -0.5958,0.5958l0,9.5317c0,0.3293 0.2668,0.5958 0.5958,0.5958l2.4019,0c0.3293,0 0.5958,-0.2665 0.5958,-0.5958l0,-1.2508c0.9483,-0.1968 1.7423,-0.8406 2.1303,-1.7279l8.016,0l0,0.5958c0,0.9871 0.8,1.7874 1.7871,1.7874c0.987,0 1.7873,-0.8003 1.7873,-1.7874l0,-6.5996c0.5412,-0.2685 0.9602,-0.7343 1.1682,-1.3018l0.411,-1.1188l5.033,1.8469c0.066,0.0242 0.135,0.0365 0.205,0.0365c0.25,0 0.474,-0.1558 0.56,-0.3903l0.223,-0.6083c1.939,0.3648 3.806,-0.911 4.17,-2.8494c0.135,-0.7163 0.048,-1.4566 -0.25,-2.1216l3.611,-1.8544c0.293,-0.15 0.409,-0.509 0.259,-0.8018c-0.068,-0.133 -0.184,-0.2355 -0.324,-0.2872l-0.003,0.0017zm-17.4463,9.3805l0.4933,0.1788c0.2245,0.0805 0.46,0.1267 0.6982,0.137l0,2.1816l-1.1915,0l0,-2.4974zm-12.5289,8.455l-1.2106,0l0,-8.3405l1.2106,0l0,8.3405zm2.3828,-3.5745c-0.001,0.7571 -0.478,1.4319 -1.1915,1.6854l0,-4.5623c0.7135,0.2533 1.1905,0.9281 1.1915,1.6854l0,1.1915zm1.2101,-1.1915l10.1275,0l0,1.1915l-10.1275,0l0,-1.1915zm9.5318,3.5744c-0.3291,0 -0.5958,-0.2668 -0.5958,-0.5958l0,-0.5958l1.1915,0l0,0.5958c0,0.329 -0.2667,0.5958 -0.5957,0.5958zm2.2485,-10.0263l-0.4112,1.1188c-0.227,0.6171 -0.9113,0.9336 -1.5288,0.7071l-1.1206,-0.4105c-0.6175,-0.2268 -0.9345,-0.9113 -0.7078,-1.5291c0,0 0,0 0,-0.0003l0.4113,-1.118l3.0197,1.1085l0.3374,0.1235zm6.003,0.9353l-15.0997,-5.5448l0.4113,-1.1188l8.9474,3.2857c0.212,0.077 0.449,0.0288 0.614,-0.1253l1.672,-1.5738l4.687,1.7216l-1.232,3.3554zm4.028,-2.3283c-0.377,1.0178 -1.393,1.6538 -2.473,1.549l0.921,-2.5076l1.503,-0.7743c0.235,0.5505 0.253,1.1701 0.049,1.7329zm-2.011,-2.0599c-0.031,0.0027 -0.063,0.0082 -0.093,0.0165l-5.312,-1.9504c-0.212,-0.0777 -0.449,-0.0295 -0.614,0.1251l-1.673,1.574l-11.9583,-4.3912l2.2586,-6.1498l22.2907,8.2582l-4.899,2.5176z"/>
  <path id="svg_5" stroke-linecap="round" stroke="#E3B873" d="m53.12921,8.203409l-0.5254,1.4199m2.8152,-0.5799l-0.5255,1.4199m2.7475,-0.5934l-0.5255,1.4199"/>
 </g>
</svg>